<?xml version="1.0" standalone="no"?>
<!DOCTYPE svg PUBLIC "-//W3C//DTD SVG 1.1//EN" "http://www.w3.org/Graphics/SVG/1.1/DTD/svg11.dtd">
<svg xmlns="http://www.w3.org/2000/svg" xmlns:xlink="http://www.w3.org/1999/xlink" id="Layer_1" data-name="Layer 1" viewBox="0 0 200 200" width="200" height="200">
  <defs>
    <style>
      .cls-1 {
        clip-path: url(#clippath-1);
      }

      .cls-2, .cls-3 {
        stroke-width: 0px;
      }

      .cls-3 {
        fill: #57c7ff;
      }
    </style>
    <clipPath id="clippath-1">
      <polygon class="cls-2" points="110.12 113.69 110.12 122.89 125.41 122.89 125.41 129.4 110.12 129.4 110.12 140.15 128.7 140.15 128.7 146.65 102.92 146.65 102.92 107.2 128.7 107.2 128.7 113.69 110.12 113.69"/>
    </clipPath>
  </defs>
  <path d="m66.94,98.7c-.39-1.74-.51-3.62-.51-7.49v-.7c0-4.78-2.09-7.89-4.48-9.26,2.35-1.32,4.48-4.35,4.48-9.66v-.21c0-7-3.8-11.02-10.43-11.02h-17.17v39.46h7.2v-15.33h9.92c2.21,0,3.29,1.23,3.29,3.77v2.9c0,3.03,0,5.64.56,7.96l.17.7h7.23l-.25-1.11Zm-11-20.72h-9.92v-11.13h9.92c.81,0,3.29,0,3.29,4.08v2.97c0,4.08-2.47,4.08-3.29,4.08Z"/>
  <g>
    <polygon points="110.12 113.69 110.12 122.89 125.41 122.89 125.41 129.4 110.12 129.4 110.12 140.15 128.7 140.15 128.7 146.65 102.92 146.65 102.92 107.2 128.7 107.2 128.7 113.69 110.12 113.69"/>
    <g class="cls-1">
      <path class="cls-2" d="m108.82,147.72c-.02-.11-.29-.05-.18-.24.08-.13.18.05.26.01.13-.05.06-.14.05-.24-.03-.48.64-1.31,1.1-1.41"/>
      <path class="cls-2" d="m115.45,109.39c0-.64.07-1.27.35-1.86.06.65-.12,1.26-.35,1.86Z"/>
      <path class="cls-2" d="m110.08,118.26c-.19.24-.41.36-.68.28-.07-.02-.14-.16-.14-.24,0-.09.07-.15.22-.09.17.07.38.03.6.04Z"/>
      <path class="cls-2" d="m117.79,143.63c-.04-.43.33-.56.51-.83.06.17.13.31-.06.45-.16.11-.42.12-.45.38Z"/>
      <path class="cls-2" d="m110.22,107.59c-.27-.1-.28.33-.61.15-.25-.14-.12-.29-.14-.46.16.32.52.03.75.31Z"/>
      <path class="cls-2" d="m118.4,141.68c-.23-.28,0-.69-.29-.97.56.18.1.67.29.97Z"/>
      <path class="cls-2" d="m116.91,118.89q.05.33-.15.74c-.14-.34-.12-.41.15-.74Z"/>
      <path class="cls-2" d="m116.92,108.04q.33.26-.07.89c-.1-.33.32-.59.07-.89Z"/>
      <path class="cls-2" d="m116.23,144.22c-.61.04-.12-.38-.23-.54.22.13.5.24.21.56l.02-.02Z"/>
      <path class="cls-2" d="m122.55,144.74c-.08,0-.24-.03-.16-.19.08-.15-.02-.44.12-.43.26,0-.02.44.28.52.02,0-.11.09-.25.1Z"/>
      <path class="cls-2" d="m118.46,117.82c-.07.31.27.5-.04.72-.08-.2-.41-.37.04-.72Z"/>
      <path class="cls-2" d="m111.9,106.84c-.1-.04-.33.06-.27-.12.06-.19.36.04.51-.14.07-.08.11,0,.11.08,0,.29-.22.13-.35.18Z"/>
      <path class="cls-2" d="m115.37,145.16c-.04.16-.08.33-.13.49-.03-.17-.35-.11-.27-.33.07-.18.25-.17.41-.15l-.02-.02Z"/>
      <path class="cls-2" d="m119.38,110.34c.22-.09.43-.19.65-.27.06-.02.15,0,.17.08.02.08-.03.15-.11.13-.24-.05-.45.23-.71.07Z"/>
      <path class="cls-2" d="m118.11,109.84c-.21-.17-.22-.36-.07-.56.04-.05.08-.06.12,0,.13.2.01.38-.04.57Z"/>
      <path class="cls-2" d="m111.67,119.79c-.42-.26-.13-.45-.03-.67.1.21.05.41.03.67Z"/>
      <path class="cls-2" d="m112.62,106.22c.26-.08.35.11.48.26-.26.12-.48.16-.48-.26Z"/>
      <path class="cls-2" d="m110.74,107.2c-.11.11-.17.28-.35.28-.07,0-.15-.07-.15-.17.23.07.19-.26.39-.25.1,0,.11.07.11.14Z"/>
      <path class="cls-2" d="m118.58,107.11c-.14.22.34.47-.05.68-.05-.23-.25-.45.05-.68Z"/>
      <path class="cls-2" d="m114.26,107.9c.08-.19.2-.37.16-.61.4.36.03.46-.16.61Z"/>
      <path class="cls-2" d="m122.28,143.34c.08.01.2.06.15.08-.25.1.07.38-.17.45-.08.02-.12-.07-.1-.14.03-.13-.11-.33.12-.39Z"/>
      <path class="cls-2" d="m113.83,116.99c-.2-.23-.04-.39.05-.51.07-.09.04.18.18.15,0,.17-.16.23-.23.36Z"/>
      <path class="cls-2" d="m112.37,117.42c.03-.28.18-.37.34-.45-.09.09.4.29-.06.31-.07,0-.15.07-.28.14Z"/>
      <path class="cls-2" d="m116.1,119.45c.11.12.09.24-.06.26-.08.01-.21-.14-.14-.22.1-.11.05-.34.15-.34.25.02.05.19.05.3Z"/>
      <path class="cls-2" d="m114.19,118.15c.32.17.33.33,0,.5v-.5Z"/>
      <path class="cls-2" d="m110.18,145.57c-.33-.25-.25-.4.15-.47-.05.17-.1.32-.15.47Z"/>
      <path class="cls-2" d="m117.58,111.05c.1-.3.3-.24.43-.32,0,.24-.18.25-.43.32Z"/>
      <path class="cls-2" d="m111.06,116.31c-.14-.08-.32-.1-.42-.27.26-.16.35.07.48.2,0,0-.03.04-.06.07Z"/>
      <path class="cls-2" d="m115.6,140.8c.14-.03.27-.06.4-.08,0,.07.04.17,0,.2-.16.14-.28.06-.41-.11Z"/>
      <path class="cls-2" d="m110.22,146.13c.02-.1.09-.18.2-.2.09-.02.14.06.11.12-.03.07-.1.14-.17.18-.06.03-.13,0-.14-.11Z"/>
      <path class="cls-2" d="m120.96,145.24c-.2-.13-.32-.2-.47-.3.25-.07.4-.04.47.3Z"/>
      <path class="cls-2" d="m111.36,142.18c.14.11.22.24.08.39-.02.02-.2.1-.2-.08.29,0-.09-.27.12-.31Z"/>
      <path class="cls-2" d="m116.77,106.51c-.23-.11-.25-.23-.2-.37.01-.03.11-.06.13-.04.12.11.03.25.07.41Z"/>
      <path class="cls-2" d="m119.58,141.42c-.06.18-.11.33-.16.49-.22-.23-.12-.37.16-.49Z"/>
      <path class="cls-2" d="m111.91,108.89c-.36-.05-.25-.25-.2-.55.09.24.14.38.2.55Z"/>
      <path class="cls-2" d="m110.23,118.27c.05-.23.07-.43.36-.32-.06.14-.16.24-.36.32Z"/>
      <path class="cls-2" d="m111.97,117.69c-.11-.06-.25-.12-.24-.14.03-.15.14-.13.26-.09.04.01.13-.08.12.04,0,.08-.1.14-.14.2Z"/>
      <path class="cls-2" d="m116.46,116.95c.1,0,.19,0,.18.13,0,.06-.03.17-.07.18-.16.05-.13-.12-.19-.19-.07-.1.01-.1.08-.11Z"/>
      <path class="cls-2" d="m116.82,109.12c.07.06.17.11.11.17-.07.08-.02.28-.21.23-.07-.02-.08-.1-.04-.17.05-.07.09-.15.14-.23Z"/>
      <path class="cls-2" d="m111.85,109.65c-.18-.18-.29-.31-.43-.44.23.03.34.17.43.44Z"/>
      <path class="cls-2" d="m118.64,116.62c.06.09.12.15.15.22.02.06-.04.11-.08.1-.08-.03-.14-.09-.21-.14.04-.05.09-.11.15-.18Z"/>
      <path class="cls-2" d="m110.67,108.45c-.29,0-.34-.16-.51-.31.29,0,.34.16.51.31Z"/>
      <path class="cls-2" d="m118.98,106.91c-.31.09-.31-.09-.33-.28.21,0,.15.28.33.28Z"/>
      <path class="cls-2" d="m115.54,142.74c-.13.03-.19.24-.35.12-.02-.02-.03-.08-.02-.09.11-.14.24-.06.37-.03Z"/>
      <path class="cls-2" d="m113.6,143.92q-.04-.32.14-.61c.03.26-.09.42-.15.6,0,0,.01.01.01.01Z"/>
      <path class="cls-2" d="m119.68,144.31c0,.07-.06.11-.13.1-.06,0-.16-.03-.17-.07-.03-.11.05-.15.15-.14.07,0,.14,0,.16.11Z"/>
      <path class="cls-2" d="m119.89,145.5c.11.13.32-.05.42.15-.13.11-.28.04-.42.05l.02.02c-.07-.08-.07-.15,0-.23h-.02Z"/>
      <path class="cls-2" d="m116.21,144.23c.26-.04.4,0,.26.31,0,0,.02.02.02.02-.09-.11-.18-.23-.27-.34,0,0-.02.02-.02.02Z"/>
      <path class="cls-2" d="m114.22,120.08c-.04-.1-.08-.21-.14-.34.27.04.17.22.14.34Z"/>
      <path class="cls-2" d="m118.05,119.21c.1.02.12.08.08.15-.03.05-.09.09-.14.14-.02-.06-.05-.11-.05-.17,0-.08.04-.12.11-.12Z"/>
      <path class="cls-2" d="m115.98,116.63s.09.05.09.05c-.04.08-.08.15-.18.15-.03,0-.09-.05-.09-.08-.01-.12.08-.12.19-.12Z"/>
      <path class="cls-2" d="m109.44,109.48c-.12-.03-.25-.06-.46-.11.23-.07.37-.09.46.11Z"/>
      <path class="cls-2" d="m116.29,107.93c.04.08.1.15.11.23.03.12-.09.09-.12.06-.06-.04-.18-.07-.11-.18.02-.04.08-.07.12-.11Z"/>
      <path class="cls-2" d="m115.27,147.68c-.08-.36-.29.1-.42-.11.12-.2.53-.36.24-.71.07-.05.13-.11.21-.13.1-.03.14.07.18.14.07.12-.19.19-.06.33.16-.14.31-.28.47-.42.13-.12.24-.22-.03-.33-.17-.06-.23-.25-.09-.4.23-.25.12.13.25.15.17.02.32-.13.52,0-.14.58-.65.97-.78,1.56"/>
      <path class="cls-2" d="m112.42,146.67c.55.25.5-.4.87-.45.14-.02.29-.32.43-.14.15.2.01.36-.26.33.11.24-.25.15-.24.35,0,.14,0,.44-.05.42-.2-.12-.48-.02-.61-.26-.03-.06-.06-.11-.14-.25Z"/>
      <path class="cls-2" d="m114.01,147.72c-.1-.49.13-.72.67-.86-.21.38-.3.72-.67.86Z"/>
      <path class="cls-2" d="m122.33,146.52c.25-.15.41-.36.65-.23.12.07-.03.18-.07.26-.17.31-.33.01-.58-.03Z"/>
      <path class="cls-2" d="m121.21,145.95c-.04.33.37.21.39.43.01.08-.09.08-.16.08-.24,0-.23-.23-.33-.36-.01-.01.06-.1.1-.15Z"/>
      <path class="cls-2" d="m122.77,146.09c-.3-.19-.07-.43-.26-.56.36.05.28.27.26.56Z"/>
      <path class="cls-2" d="m118.71,145.27c-.14.39-.31.28-.54.02.22,0,.39,0,.56,0,0,0-.02-.02-.02-.02Z"/>
      <path class="cls-2" d="m119.91,145.48c0,.08,0,.15,0,.23-.1.01-.21.03-.31.04,0-.08-.01-.17.02-.24.07-.16.19-.04.29-.03Z"/>
      <path class="cls-2" d="m116.85,144.99c.23-.1.28.07.38.18-.03.04-.07.08-.1.12-.09-.11-.17-.21-.26-.32,0,0-.02.02-.02.02Z"/>
    </g>
  </g>
  <path d="m66.79,106.92v29.4c0,6.58-3.78,10.54-10.1,10.59l-8.15.04c-6.18-.15-9.72-4.03-9.72-10.64v-29.47h7.31v29.84c0,2.2.86,3.45,2.46,3.63l8.1.09c1.87,0,2.9-1.33,2.9-3.72v-29.78h7.2Z"/>
  <path class="cls-2" d="m97.38,135.3v1.02c0,5.94-3.28,9.86-8.77,10.49-.49.06-1.03.11-1.57.11h-4.37c-6.42,0-10.26-3.96-10.26-10.59v-4.41h7.19v4.79c0,1.38.41,3.72,3.13,3.72h4.32c2.73-.02,3.14-2.34,3.14-3.72v-2.26c0-1.7-.39-2.6-1.49-3.45-.93-.71-2.13-1.15-3.46-1.27-.31-.03-.64-.06-.97-.09-1.78-.12-3.55-.49-5.27-1.1-2.39-.95-3.96-2.2-4.98-3.93-1.01-1.7-1.49-3.88-1.49-6.82v-.8c0-6.74,3.71-10.59,10.15-10.59l4.78.02c6.16.18,9.82,4.13,9.82,10.57v4.4h-7.2v-4.78c0-1.39-.39-3.71-3.03-3.72h-4.32c-2.61,0-3.01,2.32-3.01,3.72v2.1c0,1.68.39,2.57,1.46,3.42.87.67,2,1.11,3.29,1.26l.32.04c.48.05,1,.11,1.46.15,1.57.14,3.12.48,4.58,1.04,2.44.94,4.06,2.16,5.09,3.85,1.01,1.68,1.48,3.86,1.48,6.86Z"/>
  <polygon points="79.5 66.86 79.5 76.06 94.8 76.06 94.8 82.55 79.5 82.55 79.5 93.31 98.08 93.31 98.08 99.81 72.3 99.81 72.3 60.35 98.08 60.35 98.08 66.86 79.5 66.86"/>
  <g>
    <path class="cls-2" d="m47.09,161.85v1.88h-6.27s0,3.66,0,3.66h5.63v1.88h-5.63s0,4.98,0,4.98h-1.99v-12.41s8.26,0,8.26,0Z"/>
    <path class="cls-2" d="m54.69,161.63c3.89,0,6.35,2.64,6.35,6.4v.02c0,3.78-2.46,6.42-6.35,6.42h-.02c-3.89,0-6.33-2.64-6.33-6.42v-.02c0-3.77,2.44-6.4,6.33-6.4h.02Zm0,10.97c2.65,0,4.36-1.85,4.36-4.55v-.02c0-2.69-1.7-4.54-4.36-4.54h-.02c-2.63,0-4.34,1.85-4.34,4.54v.02c0,2.71,1.7,4.55,4.34,4.55h.02Z"/>
    <path class="cls-2" d="m71.65,161.85h2.01v6.87c0,4.07-2.38,5.75-5.4,5.75h-.02c-3.01,0-5.4-1.69-5.4-5.75v-6.87h2.01v6.87c0,2.87,1.65,3.82,3.39,3.82h.02c1.74,0,3.39-.95,3.39-3.82v-6.87Z"/>
    <path class="cls-2" d="m84.94,161.85h1.94v12.41h-1.83s-6.92-9.07-6.92-9.07v9.07h-1.94v-12.41h1.83s6.92,9.07,6.92,9.07v-9.07Z"/>
    <path class="cls-2" d="m94.43,161.85c3.87,0,6.19,2.51,6.19,6.2v.02c0,3.68-2.31,6.19-6.19,6.19h-4.72v-12.41h4.72Zm-2.73,10.52h2.73c2.6,0,4.18-1.76,4.18-4.3v-.02c0-2.55-1.58-4.32-4.18-4.32h-2.73s0,8.64,0,8.64Z"/>
    <path class="cls-2" d="m113.72,174.25h-2.12s-1.18-2.9-1.18-2.9h-6.02s-1.18,2.9-1.18,2.9h-2.12s5.23-12.41,5.23-12.41h2.15s5.24,12.41,5.24,12.41Zm-6.31-10.33l-2.35,5.65h4.7s-2.35-5.65-2.35-5.65Z"/>
    <path class="cls-2" d="m123.1,161.85v1.92h-3.94s0,10.49,0,10.49h-2.01v-10.49s-3.94,0-3.94,0v-1.92h9.9Z"/>
    <path class="cls-2" d="m124.97,174.25v-12.41h1.99v12.41h-1.99Z"/>
    <path class="cls-2" d="m135.42,161.63c3.89,0,6.35,2.64,6.35,6.4v.02c0,3.78-2.46,6.42-6.35,6.42h-.02c-3.89,0-6.33-2.64-6.33-6.42v-.02c0-3.77,2.44-6.4,6.33-6.4h.02Zm0,10.97c2.65,0,4.36-1.85,4.36-4.55v-.02c0-2.69-1.7-4.54-4.36-4.54h-.02c-2.64,0-4.34,1.85-4.34,4.54v.02c0,2.71,1.7,4.55,4.34,4.55h.02Z"/>
    <path class="cls-2" d="m152.64,161.85h1.94v12.41h-1.83s-6.92-9.07-6.92-9.07v9.07h-1.94v-12.41h1.83s6.92,9.07,6.92,9.07v-9.07Z"/>
  </g>
  <path class="cls-3" d="m158.71,42.93c-1.76-3.55-4.38-6.63-7.57-8.92-2.62-1.89-8.09-5.27-15.35-6.78-19.27-4.03-40.1-.33-49.09,5.56-5.37,3.41-5.24,6.65-4.93,7.88.96,3.9,5.9,5.88,16.01,6.44,21.64,1.18,30.11,3.71,37.81,11.3.37.36.9.95,1.53,1.69,1.81,2.13,3.15,4.46,3.96,6.9.45,1.35.71,2.6.78,3.74-13.65,1.56-25.47,8.07-28.21,15.51-.64,1.36-.74,2.92-.26,4.31.47,1.36,1.48,2.46,2.84,3.1.95.45,2.09.67,3.36.67.84,0,1.72-.1,2.66-.29,15.39-3.45,22.08-12.87,23.19-20.07,5.89-1.39,10.42-4.72,13.12-9.65,1.38-2.51,2.22-5.13,2.47-7.81.48-4.93-.31-9.49-2.34-13.57Zm-40.68,46.93c-.21-.17-.39-.37-.49-.6-.44-.87-.34-1.99.26-2.99,2.71-4.56,11.26-10.11,23.75-11.73-.99,4.18-3.91,7.77-7.64,10.5-3.73,2.73-8.27,4.61-12.48,5.33-1.05.18-2.58.16-3.4-.51Zm39.08-32.49c-.32,1.79-.93,3.51-1.82,5.14-2.04,3.68-5.38,6.29-9.7,7.56-.12-1.35-.46-2.82-1-4.39-.99-2.85-2.54-5.57-4.61-8.09-.69-.84-1.24-1.48-1.65-1.89-9.04-9.23-19.3-11.2-40.35-12.35-4.65-.25-9.19-.66-10.96-1.99-1.22-.91-1.12-2.25-.67-3.12.52-1.02,1.92-2.18,3.02-2.82,6.81-3.92,17.01-6.24,27.97-6.37.33-.01.67-.01,1.01-.01,5.77,0,11.34.61,16.56,1.82,4.27,1,8.83,2.88,11.88,4.93,7.81,5.22,11.76,13.49,10.33,21.57Z"/>
</svg>